<svg version="1.1" id="Layer_1" xmlns="http://www.w3.org/2000/svg" xmlns:xlink="http://www.w3.org/1999/xlink" x="0px" y="0px"
	 width="100%" viewBox="0 0 1600 1600" enable-background="new 0 0 1600 1600" xml:space="preserve">
<path fill="#1877F2" opacity="1.000000" stroke="none" 
	d="
M1.000016,858.000000 
	C1.000000,820.645752 1.000000,783.291565 1.416469,745.655029 
	C2.552326,740.261963 3.357389,735.161560 3.975402,730.038635 
	C6.016322,713.120789 7.529376,696.124146 10.110981,679.290649 
	C13.027584,660.272583 15.829117,641.130249 20.571022,622.523621 
	C27.882214,593.835632 35.787704,565.211670 45.338943,537.207825 
	C54.007534,511.791931 64.234795,486.789276 75.508690,462.406067 
	C96.145508,417.772736 120.916634,375.447479 149.712418,335.464874 
	C168.883835,308.845581 189.262497,283.221802 211.569412,259.255798 
	C228.196945,241.391602 245.730774,224.270798 263.876404,207.947769 
	C282.337799,191.340698 301.737366,175.727570 321.271912,160.373657 
	C352.894379,135.518768 387.014496,114.352600 422.423889,95.410263 
	C461.182404,74.676285 501.303101,56.876350 543.067749,42.951775 
	C589.863342,27.349848 637.471619,15.142332 686.495972,9.027275 
	C705.048340,6.713136 723.677429,5.016138 742.259033,2.926852 
	C743.232544,2.817381 744.089050,1.666214 745.000000,1.000006 
	C782.020874,1.000000 819.041809,1.000000 856.335999,1.414586 
	C862.054260,2.552609 867.485352,3.411754 872.947144,3.970740 
	C883.737671,5.075095 894.615540,5.538638 905.329590,7.128002 
	C922.760071,9.713684 940.132690,12.754451 957.450012,16.025034 
	C993.671631,22.865932 1029.029053,32.837528 1063.908569,44.819336 
	C1108.839233,60.253986 1151.786621,79.915489 1193.189819,103.059891 
	C1230.306396,123.807991 1265.830444,147.016449 1298.550659,174.217728 
	C1319.764404,191.853256 1340.713867,209.879074 1360.803101,228.770859 
	C1375.404053,242.501648 1388.870972,257.531555 1401.993286,272.716888 
	C1416.816406,289.870514 1431.068726,307.553650 1444.888550,325.529694 
	C1468.394775,356.105225 1488.697510,388.834808 1506.816528,422.825562 
	C1527.415405,461.468140 1545.163330,501.431824 1559.040405,543.035461 
	C1574.649780,589.832520 1586.848999,637.448975 1592.970947,686.476379 
	C1595.287476,705.027649 1596.983154,723.656006 1599.072998,742.236755 
	C1599.183228,743.217651 1600.333740,744.081604 1601.000000,745.000000 
	C1601.000000,782.354248 1601.000000,819.708435 1600.593262,857.306519 
	C1599.800171,858.228943 1599.141357,858.878967 1599.067017,859.590149 
	C1597.341919,876.071777 1596.111694,892.618225 1593.893799,909.031616 
	C1591.355835,927.812256 1589.008301,946.724487 1584.677002,965.132385 
	C1578.013062,993.455322 1570.505493,1021.635742 1561.958862,1049.447266 
	C1547.535400,1096.384033 1527.926147,1141.278931 1503.799316,1184.016846 
	C1489.902832,1208.632812 1474.685913,1232.546631 1459.199097,1256.210938 
	C1434.307007,1294.247192 1404.631470,1328.517334 1373.095093,1361.113892 
	C1359.276245,1375.397339 1344.510376,1388.840942 1329.454956,1401.831909 
	C1312.285034,1416.646973 1294.592773,1430.895142 1276.627075,1444.740479 
	C1245.932373,1468.395874 1213.196533,1489.076172 1178.786133,1506.780762 
	C1152.372803,1520.370483 1125.230469,1532.652222 1097.912231,1544.347168 
	C1060.562378,1560.336548 1021.649780,1571.828979 982.076416,1580.887695 
	C963.520081,1585.135376 944.697815,1588.221558 925.997375,1591.375977 
	C925.998657,1404.826660 925.998657,1218.735718 925.998657,1031.955078 
	C988.618286,1031.955078 1050.646484,1031.955078 1112.466309,1031.955078 
	C1124.319580,954.640564 1136.064819,878.030334 1147.887207,800.918030 
	C1073.868652,800.918030 1000.123047,800.918030 926.000244,800.918030 
	C926.000244,799.329041 926.000122,798.191772 926.000183,797.054565 
	C926.002869,748.057922 925.755371,699.059143 926.189331,650.066284 
	C926.293945,638.257812 927.708557,626.268982 930.154236,614.708679 
	C938.021790,577.520142 959.070740,550.768555 994.838745,536.443176 
	C1014.642456,528.511719 1035.492310,526.291748 1056.546509,526.082520 
	C1088.207764,525.767822 1119.874634,526.000183 1151.539062,526.000000 
	C1153.314697,526.000000 1155.090210,526.000000 1157.016602,526.000000 
	C1157.016602,460.116394 1157.016602,394.841736 1157.016602,329.285400 
	C1155.163574,328.855988 1153.440674,328.308319 1151.676147,328.073303 
	C1143.489624,326.982819 1135.297974,325.923157 1127.096191,324.955048 
	C1104.453613,322.282349 1081.835083,319.352356 1059.148193,317.125061 
	C1043.381348,315.577148 1027.525513,314.393188 1011.694092,314.178589 
	C990.094421,313.885773 968.470825,314.379181 946.874268,315.063538 
	C917.827637,315.984039 889.603333,321.843292 862.126953,331.085754 
	C781.414673,358.235504 726.762573,412.301575 697.272888,491.926849 
	C688.035950,516.867737 682.413696,542.773376 679.156250,569.152100 
	C677.774902,580.338318 676.195557,591.600220 676.145813,602.834106 
	C675.858643,667.660400 676.003235,732.488708 675.990295,797.316284 
	C675.990112,798.429871 675.849915,799.543457 675.743652,801.123718 
	C608.040466,801.123718 540.643921,801.123718 473.234070,801.123718 
	C473.234070,878.354736 473.234070,955.092773 473.234070,1032.371704 
	C540.937134,1032.371704 608.331543,1032.371704 676.003906,1032.371704 
	C676.003906,1219.220337 676.003906,1405.527222 675.598145,1591.885498 
	C674.437378,1591.637085 673.707397,1591.201782 672.923828,1591.057251 
	C656.241211,1587.984009 639.375732,1585.683105 622.901367,1581.744751 
	C586.783875,1573.110474 551.222961,1562.626221 516.440491,1549.358154 
	C475.402924,1533.704102 435.970886,1514.841187 398.031097,1492.865845 
	C364.784912,1473.609009 332.787415,1452.379028 303.303345,1427.666382 
	C282.170410,1409.953369 261.148102,1392.040283 241.069107,1373.160522 
	C226.475403,1359.438599 213.092422,1344.349487 199.922897,1329.214355 
	C186.221115,1313.467407 173.148239,1297.148804 160.290573,1280.697144 
	C135.523499,1249.007080 114.317902,1214.928833 95.367546,1179.538086 
	C72.216599,1136.302368 52.965702,1091.322998 38.159229,1044.495239 
	C25.214920,1003.556824 15.383321,961.879333 9.170229,919.419861 
	C6.320858,899.947632 5.031649,880.248108 2.925707,860.663391 
	C2.823990,859.717468 1.666091,858.885193 1.000016,858.000000 
z"/>
<path fill="#FFFFFE" opacity="1.000000" stroke="none" 
	d="
M676.003906,1591.834229 
	C676.003906,1405.527222 676.003906,1219.220337 676.003906,1032.371704 
	C608.331543,1032.371704 540.937134,1032.371704 473.234070,1032.371704 
	C473.234070,955.092773 473.234070,878.354736 473.234070,801.123718 
	C540.643921,801.123718 608.040466,801.123718 675.743652,801.123718 
	C675.849915,799.543457 675.990112,798.429871 675.990295,797.316284 
	C676.003235,732.488708 675.858643,667.660400 676.145813,602.834106 
	C676.195557,591.600220 677.774902,580.338318 679.156250,569.152100 
	C682.413696,542.773376 688.035950,516.867737 697.272888,491.926849 
	C726.762573,412.301575 781.414673,358.235504 862.126953,331.085754 
	C889.603333,321.843292 917.827637,315.984039 946.874268,315.063538 
	C968.470825,314.379181 990.094421,313.885773 1011.694092,314.178589 
	C1027.525513,314.393188 1043.381348,315.577148 1059.148193,317.125061 
	C1081.835083,319.352356 1104.453613,322.282349 1127.096191,324.955048 
	C1135.297974,325.923157 1143.489624,326.982819 1151.676147,328.073303 
	C1153.440674,328.308319 1155.163574,328.855988 1157.016602,329.285400 
	C1157.016602,394.841736 1157.016602,460.116394 1157.016602,526.000000 
	C1155.090210,526.000000 1153.314697,526.000000 1151.539062,526.000000 
	C1119.874634,526.000183 1088.207764,525.767822 1056.546509,526.082520 
	C1035.492310,526.291748 1014.642456,528.511719 994.838745,536.443176 
	C959.070740,550.768555 938.021790,577.520142 930.154236,614.708679 
	C927.708557,626.268982 926.293945,638.257812 926.189331,650.066284 
	C925.755371,699.059143 926.002869,748.057922 926.000183,797.054565 
	C926.000122,798.191772 926.000244,799.329041 926.000244,800.918030 
	C1000.123047,800.918030 1073.868652,800.918030 1147.887207,800.918030 
	C1136.064819,878.030334 1124.319580,954.640564 1112.466309,1031.955078 
	C1050.646484,1031.955078 988.618286,1031.955078 925.998657,1031.955078 
	C925.998657,1218.735718 925.998657,1404.826660 925.568481,1591.452881 
	C919.487488,1592.665894 913.842529,1593.397705 908.184753,1594.011475 
	C892.611267,1595.700928 877.028320,1597.304932 861.463440,1599.069580 
	C860.251587,1599.207031 859.151855,1600.333374 858.000000,1601.000000 
	C820.312439,1601.000000 782.624878,1601.000000 744.771851,1600.620605 
	C742.931213,1599.827515 741.275513,1599.180786 739.577698,1599.038940 
	C730.436401,1598.275024 721.249512,1597.938843 712.145203,1596.880371 
	C700.065857,1595.475830 688.048096,1593.541138 676.003906,1591.834229 
z"/>
<path fill="none" opacity="1.000000" stroke="none"
	d="
M744.531372,1.000006 
	C744.089050,1.666214 743.232544,2.817381 742.259033,2.926852 
	C723.677429,5.016138 705.048340,6.713136 686.495972,9.027275 
	C637.471619,15.142332 589.863342,27.349848 543.067749,42.951775 
	C501.303101,56.876350 461.182404,74.676285 422.423889,95.410263 
	C387.014496,114.352600 352.894379,135.518768 321.271912,160.373657 
	C301.737366,175.727570 282.337799,191.340698 263.876404,207.947769 
	C245.730774,224.270798 228.196945,241.391602 211.569412,259.255798 
	C189.262497,283.221802 168.883835,308.845581 149.712418,335.464874 
	C120.916634,375.447479 96.145508,417.772736 75.508690,462.406067 
	C64.234795,486.789276 54.007534,511.791931 45.338943,537.207825 
	C35.787704,565.211670 27.882214,593.835632 20.571022,622.523621 
	C15.829117,641.130249 13.027584,660.272583 10.110981,679.290649 
	C7.529376,696.124146 6.016322,713.120789 3.975402,730.038635 
	C3.357389,735.161560 2.552326,740.261963 1.416469,745.186340 
	C1.000000,497.072906 1.000000,249.145813 1.000000,1.000000 
	C248.687515,1.000000 496.375092,1.000000 744.531372,1.000006 
z"/>
<path fill="none" opacity="1.000000" stroke="none"
	d="
M1601.000000,744.531372 
	C1600.333740,744.081604 1599.183228,743.217651 1599.072998,742.236755 
	C1596.983154,723.656006 1595.287476,705.027649 1592.970947,686.476379 
	C1586.848999,637.448975 1574.649780,589.832520 1559.040405,543.035461 
	C1545.163330,501.431824 1527.415405,461.468140 1506.816528,422.825562 
	C1488.697510,388.834808 1468.394775,356.105225 1444.888550,325.529694 
	C1431.068726,307.553650 1416.816406,289.870514 1401.993286,272.716888 
	C1388.870972,257.531555 1375.404053,242.501648 1360.803101,228.770859 
	C1340.713867,209.879074 1319.764404,191.853256 1298.550659,174.217728 
	C1265.830444,147.016449 1230.306396,123.807991 1193.189819,103.059891 
	C1151.786621,79.915489 1108.839233,60.253986 1063.908569,44.819336 
	C1029.029053,32.837528 993.671631,22.865932 957.450012,16.025034 
	C940.132690,12.754451 922.760071,9.713684 905.329590,7.128002 
	C894.615540,5.538638 883.737671,5.075095 872.947144,3.970740 
	C867.485352,3.411754 862.054260,2.552609 856.804688,1.414586 
	C1104.927124,1.000000 1352.854126,1.000000 1601.000000,1.000000 
	C1601.000000,248.687515 1601.000000,496.375092 1601.000000,744.531372 
z"/>
<path fill="none" opacity="1.000000" stroke="none"
	d="
M858.468628,1601.000000 
	C859.151855,1600.333374 860.251587,1599.207031 861.463440,1599.069580 
	C877.028320,1597.304932 892.611267,1595.700928 908.184753,1594.011475 
	C913.842529,1593.397705 919.487488,1592.665894 925.567139,1591.911133 
	C944.697815,1588.221558 963.520081,1585.135376 982.076416,1580.887695 
	C1021.649780,1571.828979 1060.562378,1560.336548 1097.912231,1544.347168 
	C1125.230469,1532.652222 1152.372803,1520.370483 1178.786133,1506.780762 
	C1213.196533,1489.076172 1245.932373,1468.395874 1276.627075,1444.740479 
	C1294.592773,1430.895142 1312.285034,1416.646973 1329.454956,1401.831909 
	C1344.510376,1388.840942 1359.276245,1375.397339 1373.095093,1361.113892 
	C1404.631470,1328.517334 1434.307007,1294.247192 1459.199097,1256.210938 
	C1474.685913,1232.546631 1489.902832,1208.632812 1503.799316,1184.016846 
	C1527.926147,1141.278931 1547.535400,1096.384033 1561.958862,1049.447266 
	C1570.505493,1021.635742 1578.013062,993.455322 1584.677002,965.132385 
	C1589.008301,946.724487 1591.355835,927.812256 1593.893799,909.031616 
	C1596.111694,892.618225 1597.341919,876.071777 1599.067017,859.590149 
	C1599.141357,858.878967 1599.800171,858.228943 1600.593262,857.775208 
	C1601.000000,1105.593750 1601.000000,1353.187622 1601.000000,1601.000000 
	C1353.645874,1601.000000 1106.291626,1601.000000 858.468628,1601.000000 
z"/>
<path fill="none" opacity="1.000000" stroke="none"
	d="
M675.598145,1591.885498 
	C688.048096,1593.541138 700.065857,1595.475830 712.145203,1596.880371 
	C721.249512,1597.938843 730.436401,1598.275024 739.577698,1599.038940 
	C741.275513,1599.180786 742.931213,1599.827515 744.303162,1600.620605 
	C496.406219,1601.000000 248.812454,1601.000000 1.000000,1601.000000 
	C1.000000,1353.645874 1.000000,1106.291626 1.000016,858.468628 
	C1.666091,858.885193 2.823990,859.717468 2.925707,860.663391 
	C5.031649,880.248108 6.320858,899.947632 9.170229,919.419861 
	C15.383321,961.879333 25.214920,1003.556824 38.159229,1044.495239 
	C52.965702,1091.322998 72.216599,1136.302368 95.367546,1179.538086 
	C114.317902,1214.928833 135.523499,1249.007080 160.290573,1280.697144 
	C173.148239,1297.148804 186.221115,1313.467407 199.922897,1329.214355 
	C213.092422,1344.349487 226.475403,1359.438599 241.069107,1373.160522 
	C261.148102,1392.040283 282.170410,1409.953369 303.303345,1427.666382 
	C332.787415,1452.379028 364.784912,1473.609009 398.031097,1492.865845 
	C435.970886,1514.841187 475.402924,1533.704102 516.440491,1549.358154 
	C551.222961,1562.626221 586.783875,1573.110474 622.901367,1581.744751 
	C639.375732,1585.683105 656.241211,1587.984009 672.923828,1591.057251 
	C673.707397,1591.201782 674.437378,1591.637085 675.598145,1591.885498 
z"/>
</svg>